<?xml version="1.0" encoding="UTF-8" standalone="no"?>
<!-- Created with Inkscape (http://www.inkscape.org/) -->

<svg
   version="1.1"
   id="svg2"
   width="32"
   height="32"
   viewBox="0 0 32 32"
   sodipodi:docname="AB.svg"
   inkscape:version="1.1.2 (0a00cf5339, 2022-02-04)"
   xmlns:inkscape="http://www.inkscape.org/namespaces/inkscape"
   xmlns:sodipodi="http://sodipodi.sourceforge.net/DTD/sodipodi-0.dtd"
   xmlns="http://www.w3.org/2000/svg"
   xmlns:svg="http://www.w3.org/2000/svg">
  <sodipodi:namedview
     id="namedview6"
     pagecolor="#ffffff"
     bordercolor="#666666"
     borderopacity="1.0"
     inkscape:pageshadow="2"
     inkscape:pageopacity="0.0"
     inkscape:pagecheckerboard="0"
     showgrid="false"
     inkscape:zoom="16"
     inkscape:cx="8.6875"
     inkscape:cy="15.53125"
     inkscape:window-width="1920"
     inkscape:window-height="1009"
     inkscape:window-x="0"
     inkscape:window-y="0"
     inkscape:window-maximized="1"
     inkscape:current-layer="layer1" />
  <defs
     id="defs6" />
  <g
     inkscape:groupmode="layer"
     id="layer1"
     inkscape:label="Layer 1">
    <path
       id="path846"
       style="fill:#048284;fill-opacity:1;stroke:#000000;stroke-width:0.199;stroke-linecap:round;stroke-linejoin:round;stroke-miterlimit:4;stroke-dasharray:none;stroke-opacity:1"
       inkscape:transform-center-x="0.31318412"
       inkscape:transform-center-y="-0.099374603"
       d="M 16 2.0488281 A 13.949985 13.949986 0 0 0 2.0488281 16 A 13.949985 13.949986 0 0 0 6.3105469 26.019531 L 8.4179688 23.826172 A 10.932103 10.932102 0 0 1 5.1835938 17.458984 L 14.541016 17.458984 L 14.541016 26.816406 L 14.541016 29.867188 A 13.949985 13.949986 0 0 0 16 29.951172 A 13.949985 13.949986 0 0 0 29.951172 16 A 13.949985 13.949986 0 0 0 16 2.0488281 z M 14.541016 5.1835938 L 14.541016 14.541016 L 5.1835938 14.541016 A 10.932103 10.932102 0 0 1 14.541016 5.1835938 z M 17.458984 5.1835938 A 10.932103 10.932102 0 0 1 26.816406 14.541016 L 17.458984 14.541016 L 17.458984 5.1835938 z M 17.458984 17.458984 L 26.816406 17.458984 A 10.932103 10.932102 0 0 1 17.458984 26.816406 L 17.458984 17.458984 z " />
  </g>
</svg>
